<svg width="58" height="58" fill="none" xmlns="http://www.w3.org/2000/svg"><path d="M25.778 6.444a19.333 19.333 0 1 0 0 38.667 19.333 19.333 0 0 0 0-38.667zm0 35.3a16.111 16.111 0 1 1 .001-32.222 16.111 16.111 0 0 1-.001 32.222zM51.088 47.834l-8.33-8.33a22.028 22.028 0 0 1-2.239 2.385l8.298 8.297a1.611 1.611 0 0 0 2.271-2.272v-.08z" fill="#414141"/><path d="M33.833 24.167H27.39v-6.445a1.611 1.611 0 0 0-3.222 0v6.445h-6.445a1.611 1.611 0 0 0 0 3.222h6.445v6.444a1.61 1.61 0 1 0 3.222 0V27.39h6.444a1.612 1.612 0 0 0 0-3.222z" fill="#414141"/></svg>